<?xml version="1.0" encoding="UTF-8" standalone="no"?>
<svg
   xmlns:dc="http://purl.org/dc/elements/1.1/"
   xmlns:cc="http://creativecommons.org/ns#"
   xmlns:rdf="http://www.w3.org/1999/02/22-rdf-syntax-ns#"
   xmlns:svg="http://www.w3.org/2000/svg"
   xmlns="http://www.w3.org/2000/svg"
   xmlns:sodipodi="http://sodipodi.sourceforge.net/DTD/sodipodi-0.dtd"
   xmlns:inkscape="http://www.inkscape.org/namespaces/inkscape"
   width="375"
   height="1026"
   viewBox="0 0 375 1026"
   version="1.1"
   id="svg249"
   sodipodi:docname="sovereign.svg"
   inkscape:version="0.92.3 (2405546, 2018-03-11)">
  <metadata
     id="metadata253">
    <rdf:RDF>
      <cc:Work
         rdf:about="">
        <dc:format>image/svg+xml</dc:format>
        <dc:type
           rdf:resource="http://purl.org/dc/dcmitype/StillImage" />
        <dc:title></dc:title>
      </cc:Work>
    </rdf:RDF>
  </metadata>
  <sodipodi:namedview
     pagecolor="#ffffff"
     bordercolor="#666666"
     borderopacity="1"
     objecttolerance="10"
     gridtolerance="10"
     guidetolerance="10"
     inkscape:pageopacity="0"
     inkscape:pageshadow="2"
     inkscape:window-width="640"
     inkscape:window-height="480"
     id="namedview251"
     showgrid="false"
     inkscape:zoom="0.23001949"
     inkscape:cx="187.5"
     inkscape:cy="512.99999"
     inkscape:window-x="1267"
     inkscape:window-y="426"
     inkscape:window-maximized="0"
     inkscape:current-layer="svg249"
     fit-margin-top="0"
     fit-margin-left="0"
     fit-margin-right="0"
     fit-margin-bottom="0" />
  <defs
     id="defs86">
    <linearGradient
       id="linear-gradient"
       x1="298.80109"
       y1="292.34549"
       x2="7.0703959"
       gradientUnits="userSpaceOnUse"
       gradientTransform="scale(1.2198751,0.81975606)"
       y2="0">
      <stop
         offset="0"
         stop-color="#81c7f5"
         id="stop2" />
      <stop
         offset="1"
         stop-color="#3867d5"
         id="stop4" />
    </linearGradient>
    <clipPath
       id="clip-path">
      <path
         id="Shape"
         d="m 338.667,-26.667 h 16.667 A 2.667,2.667 0 0 1 358,-24 v 6 0 a 2.667,2.667 0 0 1 -2.667,2.667 H 338.667 A 2.667,2.667 0 0 1 336,-18 v -6 0 a 2.667,2.667 0 0 1 2.667,-2.667 z"
         transform="translate(0,44)"
         inkscape:connector-curvature="0"
         style="clip-rule:evenodd;fill:none" />
    </clipPath>
    <clipPath
       id="clip-path-2">
      <path
         id="Shape-2"
         data-name="Shape"
         d="m 359,-23 v 4 a 2.17,2.17 0 0 0 1.328,-2 2.17,2.17 0 0 0 -1.328,-2"
         transform="translate(0,44)"
         inkscape:connector-curvature="0"
         style="fill:none" />
    </clipPath>
    <clipPath
       id="clip-path-3">
      <path
         id="Shape-3"
         data-name="Shape"
         d="m 339.333,-24.667 h 15.333 a 1.333,1.333 0 0 1 1.334,1.334 v 4.667 0 a 1.333,1.333 0 0 1 -1.333,1.333 H 339.333 A 1.333,1.333 0 0 1 338,-18.667 v -4.667 0 a 1.333,1.333 0 0 1 1.333,-1.333 z"
         transform="translate(0,44)"
         inkscape:connector-curvature="0"
         style="fill:none" />
    </clipPath>
    <clipPath
       id="clip-path-4">
      <path
         id="Shape-4"
         data-name="Shape"
         d="m 323.33,-24.392 a 8.64,8.64 0 0 1 5.953,2.378 0.308,0.308 0 0 0 0.433,0 l 1.156,-1.167 a 0.322,0.322 0 0 0 0.093,-0.229 0.322,0.322 0 0 0 -0.1,-0.227 10.9,10.9 0 0 0 -15.08,0 0.322,0.322 0 0 0 -0.1,0.227 0.322,0.322 0 0 0 0.093,0.229 l 1.156,1.167 a 0.308,0.308 0 0 0 0.433,0 8.641,8.641 0 0 1 5.954,-2.378 z m 0,3.8 a 4.907,4.907 0 0 1 3.294,1.27 0.31,0.31 0 0 0 0.433,-0.006 l 1.155,-1.167 a 0.322,0.322 0 0 0 0.094,-0.23 0.322,0.322 0 0 0 -0.1,-0.229 7.159,7.159 0 0 0 -9.752,0 0.322,0.322 0 0 0 -0.1,0.229 0.322,0.322 0 0 0 0.094,0.23 l 1.154,1.167 a 0.31,0.31 0 0 0 0.433,0.006 4.907,4.907 0 0 1 3.292,-1.27 z m 2.219,2.784 a 0.314,0.314 0 0 0 0.094,-0.231 0.314,0.314 0 0 0 -0.1,-0.226 3.422,3.422 0 0 0 -4.419,0 0.314,0.314 0 0 0 -0.1,0.226 0.314,0.314 0 0 0 0.094,0.231 l 2,2.016 a 0.311,0.311 0 0 0 0.222,0.093 0.312,0.312 0 0 0 0.222,-0.093 z"
         transform="translate(0,44)"
         inkscape:connector-curvature="0"
         style="fill:none" />
    </clipPath>
    <clipPath
       id="clip-path-5">
      <path
         id="Shape-5"
         data-name="Shape"
         d="m 294.667,-19.667 h 1 a 1,1 0 0 1 1,1 v 2 a 1,1 0 0 1 -1,1 h -1 a 1,1 0 0 1 -1,-1 v -2 a 1,1 0 0 1 1,-1 z m 4.667,-2 h 1 a 1,1 0 0 1 1,1 v 4 a 1,1 0 0 1 -1,1 h -1 a 1,1 0 0 1 -1,-1 v -4 a 1,1 0 0 1 0.999,-1 z M 304,-24 h 1 a 1,1 0 0 1 1,1 v 6.333 a 1,1 0 0 1 -1,1 h -1 a 1,1 0 0 1 -1,-1 V -23 a 1,1 0 0 1 1,-1 z m 4.667,-2.333 h 1 a 1,1 0 0 1 1,1 v 8.667 a 1,1 0 0 1 -1,1 h -1 a 1,1 0 0 1 -1,-1 v -8.667 a 1,1 0 0 1 1,-1 z"
         transform="translate(0,44)"
         inkscape:connector-curvature="0"
         style="fill:none" />
    </clipPath>
    <filter
       id="Rectangle_184"
       x="7"
       y="259"
       width="179.526"
       height="57.493"
       filterUnits="userSpaceOnUse">
      <feOffset
         dy="2"
         input="SourceAlpha"
         id="feOffset17" />
      <feGaussianBlur
         stdDeviation="3"
         result="blur"
         id="feGaussianBlur19" />
      <feFlood
         flood-color="#4f85df"
         flood-opacity="0.29"
         id="feFlood21" />
      <feComposite
         operator="in"
         in2="blur"
         id="feComposite23"
         result="result1" />
      <feComposite
         in="SourceGraphic"
         in2="result1"
         id="feComposite25" />
    </filter>
    <filter
       id="Rectangle_184-2"
       x="188.474"
       y="259"
       width="179.526"
       height="57.493"
       filterUnits="userSpaceOnUse">
      <feOffset
         dy="2"
         input="SourceAlpha"
         id="feOffset28" />
      <feGaussianBlur
         stdDeviation="3"
         result="blur-2"
         id="feGaussianBlur30" />
      <feFlood
         flood-color="#4f85df"
         flood-opacity="0.29"
         id="feFlood32" />
      <feComposite
         operator="in"
         in2="blur-2"
         id="feComposite34"
         result="result1" />
      <feComposite
         in="SourceGraphic"
         in2="result1"
         id="feComposite36" />
    </filter>
    <filter
       id="Rectangle_184-3"
       x="97.426003"
       y="313.117"
       width="179.526"
       height="57.493"
       filterUnits="userSpaceOnUse">
      <feOffset
         dy="2"
         input="SourceAlpha"
         id="feOffset39" />
      <feGaussianBlur
         stdDeviation="3"
         result="blur-3"
         id="feGaussianBlur41" />
      <feFlood
         flood-color="#4f85df"
         flood-opacity="0.29"
         id="feFlood43" />
      <feComposite
         operator="in"
         in2="blur-3"
         id="feComposite45"
         result="result1" />
      <feComposite
         in="SourceGraphic"
         in2="result1"
         id="feComposite47" />
    </filter>
    <filter
       id="Rectangle_169"
       x="4.5"
       y="412.5"
       width="366"
       height="250.207"
       filterUnits="userSpaceOnUse">
      <feOffset
         dy="4"
         input="SourceAlpha"
         id="feOffset50" />
      <feGaussianBlur
         stdDeviation="4.5"
         result="blur-4"
         id="feGaussianBlur52" />
      <feFlood
         flood-opacity="0.051"
         id="feFlood54" />
      <feComposite
         operator="in"
         in2="blur-4"
         id="feComposite56"
         result="result1" />
      <feComposite
         in="SourceGraphic"
         in2="result1"
         id="feComposite58" />
    </filter>
    <filter
       id="Rectangle_169-2"
       x="4.5"
       y="687.5"
       width="366"
       height="169.207"
       filterUnits="userSpaceOnUse">
      <feOffset
         dy="4"
         input="SourceAlpha"
         id="feOffset61" />
      <feGaussianBlur
         stdDeviation="4.5"
         result="blur-5"
         id="feGaussianBlur63" />
      <feFlood
         flood-opacity="0.051"
         id="feFlood65" />
      <feComposite
         operator="in"
         in2="blur-5"
         id="feComposite67"
         result="result1" />
      <feComposite
         in="SourceGraphic"
         in2="result1"
         id="feComposite69" />
    </filter>
    <filter
       id="Rectangle_169-3"
       x="4.5"
       y="882.5"
       width="366"
       height="145.207"
       filterUnits="userSpaceOnUse">
      <feOffset
         dy="4"
         input="SourceAlpha"
         id="feOffset72" />
      <feGaussianBlur
         stdDeviation="4.5"
         result="blur-6"
         id="feGaussianBlur74" />
      <feFlood
         flood-opacity="0.051"
         id="feFlood76" />
      <feComposite
         operator="in"
         in2="blur-6"
         id="feComposite78"
         result="result1" />
      <feComposite
         in="SourceGraphic"
         in2="result1"
         id="feComposite80" />
    </filter>
    <clipPath
       id="clip-_3">
      <rect
         width="375"
         height="1026"
         id="rect83"
         x="0"
         y="0" />
    </clipPath>
  </defs>
  <g
     id="_3"
     data-name="3"
     clip-path="url(#clip-_3)">
    <rect
       width="375"
       height="1026"
       id="rect88"
       x="0"
       y="0"
       style="fill:#ffffff" />
    <rect
       id="Rectangle_3"
       data-name="Rectangle 3"
       width="375"
       height="252"
       x="0"
       y="0"
       style="fill:url(#linear-gradient)" />
    <g
       id="Status_bar_dark"
       data-name="Status bar/dark"
       transform="translate(0,-60)">
      <path
         id="bg"
         d="M 0,-44 H 375 V 0 H 0 Z"
         transform="translate(0,104)"
         inkscape:connector-curvature="0"
         style="fill:none" />
      <g
         id="status_bar_dark-2"
         data-name="status bar/dark"
         transform="translate(0,60)">
        <path
           id="Background"
           d="M 0,-44 H 375 V 0 H 0 Z"
           transform="translate(0,44)"
           inkscape:connector-curvature="0"
           style="fill:none" />
        <g
           id="Battery">
          <g
             id="Border"
             clip-path="url(#clip-path)">
            <path
               id="Fill"
               d="M 2.667,0 H 19.333 A 2.667,2.667 0 0 1 22,2.667 v 6 0 a 2.667,2.667 0 0 1 -2.667,2.667 H 2.667 A 2.667,2.667 0 0 1 0,8.667 v -6 0 A 2.667,2.667 0 0 1 2.667,0 Z"
               transform="translate(336,17.333)"
               stroke="rgba(255,255,255,0.35)"
               inkscape:connector-curvature="0"
               style="fill:none;stroke-width:2" />
          </g>
          <g
             id="Cap"
             clip-path="url(#clip-path-2)">
            <path
               id="Fill-2"
               data-name="Fill"
               d="m 354,-28 h 11.328 v 14 H 354 Z"
               transform="translate(0,44)"
               fill="rgba(255,255,255,0.4)"
               inkscape:connector-curvature="0" />
          </g>
          <g
             id="Capacity"
             clip-path="url(#clip-path-3)">
            <path
               id="Fill-3"
               data-name="Fill"
               d="m 333,-29.667 h 28 v 17.333 h -28 z"
               transform="translate(0,44)"
               inkscape:connector-curvature="0"
               style="fill:#ffffff" />
          </g>
        </g>
        <g
           id="Wifi">
          <g
             id="Wifi-2"
             data-name="Wifi"
             clip-path="url(#clip-path-4)">
            <path
               id="Fill-4"
               data-name="Fill"
               d="m 310.694,-31.669 h 25.272 V -10.7 h -25.272 z"
               transform="translate(0,44)"
               inkscape:connector-curvature="0"
               style="fill:#ffffff" />
          </g>
        </g>
        <g
           id="Cellular_Connection"
           data-name="Cellular Connection">
          <g
             id="Cellular_Connection-2"
             data-name="Cellular Connection"
             clip-path="url(#clip-path-5)">
            <path
               id="Fill-5"
               data-name="Fill"
               d="m 288.667,-31.333 h 27 v 20.667 h -27 z"
               transform="translate(0,44)"
               inkscape:connector-curvature="0"
               style="fill:#ffffff" />
          </g>
        </g>
        <g
           id="Bars___Time_Black"
           data-name="Bars/_/Time Black"
           transform="translate(-9)">
          <path
             id="Background-2"
             data-name="Background"
             d="M 21,-19 H 75 V -35 H 21 Z"
             transform="translate(8,50)"
             inkscape:connector-curvature="0"
             style="fill:none" />
          <path
             id="_Time"
             data-name="↳ Time"
             d="m 16.433,13.239 c 2.509,0 4,-1.962 4,-5.284 A 6.336,6.336 0 0 0 19.733,4.838 3.5,3.5 0 0 0 16.487,2.89 3.43,3.43 0 0 0 12.823,6.356 3.159,3.159 0 0 0 16.07,9.637 2.727,2.727 0 0 0 18.627,8.16 h 0.116 c 0,2.256 -0.854,3.6 -2.3,3.6 A 1.716,1.716 0 0 1 14.714,10.55 H 12.96 a 3.324,3.324 0 0 0 3.473,2.689 z m 0.062,-5 A 1.865,1.865 0 0 1 14.553,6.3 a 1.9500467,1.9500467 0 1 1 3.9,0.027 1.874,1.874 0 0 1 -1.959,1.908 z m 7.038,3.719 a 1.08,1.08 0 1 0 -1.094,-1.08 1.048,1.048 0 0 0 1.093,1.076 z m 0,-5.127 a 1.043,1.043 0 0 0 1.094,-1.073 1.094,1.094 0 0 0 -2.187,0 1.047,1.047 0 0 0 1.092,1.069 z M 31.445,13 h 1.688 v -1.839 h 1.333 V 9.671 H 33.134 V 3.136 h -2.488 c -1.743,2.625 -3.131,4.819 -4.02,6.453 v 1.572 h 4.819 z M 28.26,9.609 c 1.148,-2.023 2.174,-3.644 3.117,-5.038 h 0.1 V 9.712 H 28.26 Z M 38.511,13 h 1.764 V 3.136 H 38.518 L 35.94,4.94 v 1.7 l 2.454,-1.723 h 0.116 z"
             transform="translate(29,17)"
             inkscape:connector-curvature="0"
             style="fill:#ffffff" />
        </g>
      </g>
    </g>
    <text
       id="SOVEREIGN"
       transform="translate(18,67)"
       font-size="16"
       font-weight="300"
       style="font-weight:300;font-size:16px;font-family:Montserrat-Light, Montserrat;fill:#ffffff">
      <tspan
         x="0"
         y="0"
         id="tspan111">SOVEREIGN</tspan>
    </text>
    <text
       id="Cryptocurrency_of_Marshall_Island"
       data-name="Cryptocurrency of Marshall Island"
       transform="translate(18,94)"
       font-size="21"
       font-weight="500"
       style="font-weight:500;font-size:21px;font-family:Montserrat-Medium, Montserrat;fill:#ffffff">
      <tspan
         x="0"
         y="0"
         id="tspan114">Cryptocurrency of Marshall</tspan>
      <tspan
         x="0"
         y="25"
         id="tspan116">Island</tspan>
    </text>
    <g
       id="g120"
       style="filter:url(#Rectangle_184)">
      <rect
         id="Rectangle_184-4"
         data-name="Rectangle 184"
         width="161.526"
         height="39.493"
         rx="7"
         transform="translate(16,266)"
         x="0"
         y="0"
         style="fill:#ffffff" />
    </g>
    <text
       id="Pay_Anyone"
       data-name="Pay Anyone"
       transform="translate(96.564,289.56)"
       font-size="12"
       font-weight="500"
       style="font-weight:500;font-size:12px;font-family:Montserrat-Medium, Montserrat;opacity:0.57599996">
      <tspan
         x="-35.43"
         y="0"
         id="tspan122">Pay Anyone</tspan>
    </text>
    <g
       id="g126"
       style="filter:url(#Rectangle_184-2)">
      <rect
         id="Rectangle_184-5"
         data-name="Rectangle 184"
         width="161.526"
         height="39.493"
         rx="7"
         transform="translate(197.47,266)"
         x="0"
         y="0"
         style="fill:#ffffff" />
    </g>
    <text
       id="Request_Payment"
       data-name="Request Payment"
       transform="translate(278.044,290.56)"
       font-size="12"
       font-weight="500"
       style="font-weight:500;font-size:12px;font-family:Montserrat-Medium, Montserrat;opacity:0.57599996">
      <tspan
         x="-53.742001"
         y="0"
         id="tspan128">Request Payment</tspan>
    </text>
    <g
       id="g132"
       style="filter:url(#Rectangle_184-3)">
      <rect
         id="Rectangle_184-6"
         data-name="Rectangle 184"
         width="161.526"
         height="39.493"
         rx="7"
         transform="translate(106.43,320.12)"
         x="0"
         y="0"
         style="fill:#ffffff" />
    </g>
    <text
       id="Convert_to_USD"
       data-name="Convert to USD"
       transform="translate(187.99,343.677)"
       font-size="12"
       font-weight="500"
       style="font-weight:500;font-size:12px;font-family:Montserrat-Medium, Montserrat;opacity:0.57599996">
      <tspan
         x="-46.146"
         y="0"
         id="tspan134">Convert to USD</tspan>
    </text>
    <text
       id="_314.15"
       data-name="$314.15"
       transform="translate(113,173)"
       font-size="38"
       style="font-size:38px;font-family:Montserrat-Regular, Montserrat;fill:#ffffff">
      <tspan
         x="0"
         y="0"
         id="tspan137">$314.15</tspan>
    </text>
    <text
       id="CURRENT_BALANCE_276.15_available_"
       data-name="CURRENT BALANCE ($276.15 available)"
       transform="translate(187,201)"
       font-size="14"
       font-weight="300"
       style="font-weight:300;font-size:14px;font-family:Montserrat-Light, Montserrat;fill:#ffffff">
      <tspan
         x="-70.287003"
         y="0"
         id="tspan140">CURRENT BALANCE</tspan>
      <tspan
         x="-63.679001"
         y="28"
         id="tspan142">($276.15 available)</tspan>
    </text>
    <g
       id="Group_86"
       data-name="Group 86">
      <text
         id="Recent_Transactions"
         data-name="Recent Transactions"
         transform="translate(16,402)"
         font-size="15"
         font-weight="500"
         style="font-weight:500;font-size:15px;font-family:Montserrat-Medium, Montserrat;opacity:0.33600003">
        <tspan
           x="0"
           y="0"
           id="tspan145">Recent Transactions</tspan>
      </text>
      <text
         id="_3_49"
         data-name="3/49"
         transform="translate(357,402)"
         font-size="15"
         style="font-size:15px;font-family:Montserrat-Regular, Montserrat;opacity:0.33600003">
        <tspan
           x="-32.73"
           y="0"
           id="tspan148">3/49</tspan>
      </text>
      <g
         id="g152"
         style="filter:url(#Rectangle_169)">
        <rect
           id="Rectangle_169-4"
           data-name="Rectangle 169"
           width="339"
           height="223.207"
           rx="5"
           transform="translate(18,422)"
           x="0"
           y="0"
           style="fill:#ffffff" />
      </g>
      <g
         id="Group_83"
         data-name="Group 83">
        <text
           id="_29_Jan_BEKANT_Desk_-_IKEA"
           data-name="29 Jan BEKANT Desk - IKEA"
           transform="translate(30,445)"
           font-size="14"
           font-weight="500"
           style="font-weight:500;font-size:14px;font-family:Montserrat-Medium, Montserrat">
          <tspan
             x="0"
             y="0"
             id="tspan154">29 Jan BEKANT Desk - IKEA</tspan>
        </text>
        <text
           id="_-499.99"
           data-name="-499.99"
           transform="translate(346,445)"
           font-size="14"
           font-weight="500"
           style="font-weight:500;font-size:14px;font-family:Montserrat-Medium, Montserrat;fill:#e65454">
          <tspan
             x="-51.52"
             y="0"
             id="tspan157">-499.99</tspan>
        </text>
        <g
           id="Group_81"
           data-name="Group 81"
           transform="translate(-3,-7)">
          <text
             id="Delivery_token_-_FedEx"
             data-name="Delivery token - FedEx"
             transform="translate(45,474)"
             font-size="12"
             style="font-size:12px;font-family:Montserrat-Regular, Montserrat">
            <tspan
               x="0"
               y="0"
               id="tspan160">Delivery token - FedEx</tspan>
          </text>
          <circle
             id="Ellipse_14"
             data-name="Ellipse 14"
             cx="2.5"
             cy="2.5"
             r="2.5"
             transform="translate(33,467)"
             style="fill:#4a7fdd" />
        </g>
        <g
           id="Group_82"
           data-name="Group 82"
           transform="translate(-3,14)">
          <text
             id="Warranty_1_year_-_IKEA"
             data-name="Warranty 1 year - IKEA"
             transform="translate(45,474)"
             font-size="12"
             style="font-size:12px;font-family:Montserrat-Regular, Montserrat">
            <tspan
               x="0"
               y="0"
               id="tspan165">Warranty 1 year - IKEA</tspan>
          </text>
          <circle
             id="Ellipse_14-2"
             data-name="Ellipse 14"
             cx="2.5"
             cy="2.5"
             r="2.5"
             transform="translate(33,467)"
             style="fill:#4a7fdd" />
        </g>
        <g
           id="Group_94"
           data-name="Group 94"
           transform="translate(-3,35)">
          <text
             id="Receipt_Token"
             data-name="Receipt Token"
             transform="translate(45,474)"
             font-size="12"
             style="font-size:12px;font-family:Montserrat-Regular, Montserrat">
            <tspan
               x="0"
               y="0"
               id="tspan170">Receipt Token</tspan>
          </text>
          <circle
             id="Ellipse_14-3"
             data-name="Ellipse 14"
             cx="2.5"
             cy="2.5"
             r="2.5"
             transform="translate(33,467)"
             style="fill:#4a7fdd" />
        </g>
      </g>
      <g
         id="Group_84"
         data-name="Group 84"
         transform="translate(0,109)">
        <text
           id="_28_Jan_VISA_Application"
           data-name="28 Jan VISA Application"
           transform="translate(30,445)"
           font-size="14"
           font-weight="500"
           style="font-weight:500;font-size:14px;font-family:Montserrat-Medium, Montserrat">
          <tspan
             x="0"
             y="0"
             id="tspan176">28 Jan VISA Application</tspan>
        </text>
        <text
           id="_-80.00"
           data-name="-80.00"
           transform="translate(346,445)"
           font-size="14"
           font-weight="500"
           style="font-weight:500;font-size:14px;font-family:Montserrat-Medium, Montserrat;fill:#e65454">
          <tspan
             x="-42.882"
             y="0"
             id="tspan179">-80.00</tspan>
        </text>
        <g
           id="Group_81-2"
           data-name="Group 81"
           transform="translate(-3,-7)">
          <text
             id="Receipt_Token-2"
             data-name="Receipt Token"
             transform="translate(45,474)"
             font-size="12"
             style="font-size:12px;font-family:Montserrat-Regular, Montserrat">
            <tspan
               x="0"
               y="0"
               id="tspan182">Receipt Token</tspan>
          </text>
          <circle
             id="Ellipse_14-4"
             data-name="Ellipse 14"
             cx="2.5"
             cy="2.5"
             r="2.5"
             transform="translate(33,467)"
             style="fill:#4a7fdd" />
        </g>
      </g>
      <g
         id="Group_85"
         data-name="Group 85"
         transform="translate(0,179)">
        <text
           id="_26_Purchase_SOVEREIGN_from_Ether"
           data-name="26 Purchase SOVEREIGN from Ether"
           transform="translate(30,445)"
           font-size="14"
           font-weight="500"
           style="font-weight:500;font-size:14px;font-family:Montserrat-Medium, Montserrat">
          <tspan
             x="0"
             y="0"
             id="tspan188">26 Purchase SOVEREIGN from Ether</tspan>
        </text>
        <text
           id="_-80.00-2"
           data-name="-80.00"
           transform="translate(346,445)"
           font-size="14"
           font-weight="500"
           style="font-weight:500;font-size:14px;font-family:Montserrat-Medium, Montserrat;fill:#e65454">
          <tspan
             x="-42.882"
             y="0"
             id="tspan191">-80.00</tspan>
        </text>
      </g>
      <line
         id="Line_1"
         data-name="Line 1"
         x2="325"
         transform="translate(25.5,524.5)"
         x1="0"
         y1="0"
         y2="0"
         style="opacity:0.10700001;fill:none;stroke:#707070;stroke-width:1" />
      <line
         id="Line_2"
         data-name="Line 2"
         x2="325"
         transform="translate(25.5,594.5)"
         x1="0"
         y1="0"
         y2="0"
         style="opacity:0.10700001;fill:none;stroke:#707070;stroke-width:1" />
    </g>
    <g
       id="Group_87"
       data-name="Group 87"
       transform="translate(0,275)">
      <text
         id="Open_Payment_Channels"
         data-name="Open Payment Channels"
         transform="translate(16,402)"
         font-size="15"
         font-weight="500"
         style="font-weight:500;font-size:15px;font-family:Montserrat-Medium, Montserrat;opacity:0.33600003">
        <tspan
           x="0"
           y="0"
           id="tspan198">Open Payment Channels</tspan>
      </text>
      <g
         transform="translate(0,-275)"
         id="g202"
         style="filter:url(#Rectangle_169-2)">
        <rect
           id="Rectangle_169-5"
           data-name="Rectangle 169"
           width="339"
           height="142.207"
           rx="5"
           transform="translate(18,697)"
           x="0"
           y="0"
           style="fill:#ffffff" />
      </g>
      <g
         id="Group_83-2"
         data-name="Group 83">
        <text
           id="Payment_Channel"
           data-name="Payment Channel"
           transform="translate(30,445)"
           font-size="14"
           font-weight="500"
           style="font-weight:500;font-size:14px;font-family:Montserrat-Medium, Montserrat">
          <tspan
             x="0"
             y="0"
             id="tspan204">Payment Channel</tspan>
        </text>
        <text
           id="Opened:_2019-04-05"
           data-name="Opened: 2019-04-05"
           transform="translate(30,475)"
           font-size="13"
           style="font-size:13px;font-family:Montserrat-Regular, Montserrat">
          <tspan
             x="0"
             y="0"
             id="tspan207">Opened: 2019-04-05</tspan>
        </text>
        <text
           id="Expiry:_2019-05-05"
           data-name="Expiry: 2019-05-05"
           transform="translate(30,498)"
           font-size="13"
           style="font-size:13px;font-family:Montserrat-Regular, Montserrat">
          <tspan
             x="0"
             y="0"
             id="tspan210">Expiry: 2019-05-05</tspan>
        </text>
        <text
           id="Balance_held:_50"
           data-name="Balance held: $50"
           transform="translate(30,527)"
           font-size="13"
           style="font-size:13px;font-family:Montserrat-Regular, Montserrat;fill:#0bb218">
          <tspan
             x="0"
             y="0"
             id="tspan213"
             style="fill:#000000">Balance held:</tspan>
          <tspan
             y="0"
             font-weight="500"
             id="tspan215"
             style="font-weight:500;font-family:Montserrat-Medium, Montserrat;fill:#0bb218">$50</tspan>
        </text>
        <text
           id="Current_Balance:_38"
           data-name="Current Balance: $38"
           transform="translate(30,550)"
           font-size="13"
           style="font-size:13px;font-family:Montserrat-Regular, Montserrat;fill:#0bb218">
          <tspan
             x="0"
             y="0"
             id="tspan218"
             style="fill:#000000">Current Balance:</tspan>
          <tspan
             y="0"
             font-weight="500"
             id="tspan220"
             style="font-weight:500;font-family:Montserrat-Medium, Montserrat;fill:#0bb218">$38</tspan>
        </text>
      </g>
    </g>
    <g
       id="Group_88"
       data-name="Group 88"
       transform="translate(0,470)">
      <text
         id="Open_Payment_Channels-2"
         data-name="Open Payment Channels"
         transform="translate(16,402)"
         font-size="15"
         font-weight="500"
         style="font-weight:500;font-size:15px;font-family:Montserrat-Medium, Montserrat;opacity:0.33600003">
        <tspan
           x="0"
           y="0"
           id="tspan225">Open Payment Channels</tspan>
      </text>
      <text
         id="_2_5"
         data-name="2/5"
         transform="translate(357,402)"
         font-size="15"
         style="font-size:15px;font-family:Montserrat-Regular, Montserrat;opacity:0.33600003">
        <tspan
           x="-23.475"
           y="0"
           id="tspan228">2/5</tspan>
      </text>
      <g
         transform="translate(0,-470)"
         id="g232"
         style="filter:url(#Rectangle_169-3)">
        <rect
           id="Rectangle_169-6"
           data-name="Rectangle 169"
           width="339"
           height="118.207"
           rx="5"
           transform="translate(18,892)"
           x="0"
           y="0"
           style="fill:#ffffff" />
      </g>
      <g
         id="Group_83-3"
         data-name="Group 83">
        <text
           id="The_Guardian:_biweekly"
           data-name="The Guardian: biweekly"
           transform="translate(30,448)"
           font-size="14"
           font-weight="500"
           style="font-weight:500;font-size:14px;font-family:Montserrat-Medium, Montserrat">
          <tspan
             x="0"
             y="0"
             id="tspan234">The Guardian: biweekly</tspan>
        </text>
        <text
           id="Pablo_Rusty:_monthly"
           data-name="Pablo &amp; Rusty: monthly"
           transform="translate(30,501)"
           font-size="14"
           font-weight="500"
           style="font-weight:500;font-size:14px;font-family:Montserrat-Medium, Montserrat">
          <tspan
             x="0"
             y="0"
             id="tspan237">Pablo &amp; Rusty: monthly</tspan>
        </text>
        <text
           id="_10_-_No_expiry"
           data-name="$10 - No expiry"
           transform="translate(30,471)"
           font-size="13"
           style="font-size:13px;font-family:Montserrat-Regular, Montserrat">
          <tspan
             x="0"
             y="0"
             id="tspan240">$10 - No expiry</tspan>
        </text>
        <text
           id="_28_-_till_2019"
           data-name="$28 - till 2019"
           transform="translate(30,524)"
           font-size="13"
           style="font-size:13px;font-family:Montserrat-Regular, Montserrat">
          <tspan
             x="0"
             y="0"
             id="tspan243">$28 - till 2019</tspan>
        </text>
      </g>
    </g>
  </g>
</svg>
